<?xml version="1.0" encoding="utf-8"?>
<!-- Generator: Adobe Illustrator 17.1.0, SVG Export Plug-In . SVG Version: 6.00 Build 0)  -->
<!DOCTYPE svg PUBLIC "-//W3C//DTD SVG 1.1//EN" "http://www.w3.org/Graphics/SVG/1.1/DTD/svg11.dtd">
<svg version="1.1" id="layer" xmlns="http://www.w3.org/2000/svg" xmlns:xlink="http://www.w3.org/1999/xlink" x="0px" y="0px"
	 viewBox="0 0 100 121" enable-background="new 0 0 100 121" xml:space="preserve">
<g id="group">
	<path id="a" fill="#666666" d="M4.4,121.1H9l6.8-17.3h21l6.7,17.3h5L26.9,67.7L4.4,121.1z M17.4,99.7l9.1-22.4l8.8,22.4H17.4z"/>
	<path id="r" fill="#666666" d="M90.6,72.9c-3.3-2.2-7.8-3.3-13.4-3.3h-8.9v51.5h4.8V98.1h4.8c5.3,0,9.5-1,12.8-3.1
		c3.3-2,4.9-5.8,4.9-11.4C95.6,78.7,93.9,75.1,90.6,72.9z M87.7,91.6c-1.9,1.5-5.1,2.3-9.7,2.3h-4.9V73.8h4.6
		c8.6,0,12.9,3.4,12.9,10.1C90.5,87.5,89.6,90.1,87.7,91.6z"/>
	<rect id="line" x="0" y="59.6" fill="#666666" width="100" height="4.2"/>
	<polygon id="u" fill="#666666" points="72.1,53.5 76.9,53.6 98.3,2 93.7,2 81,32.9 68.3,2 63.4,2 78.5,38.4 	"/>
	<polygon id="k" fill="#666666" points="14.5,14.3 32.5,55.3 50.9,14.3 54.7,53.5 59.5,53.5 52.9,-0.1 32.5,45.7 12.8,-0.1 
		5.8,53.5 10.6,53.5 	"/>
</g>
</svg>
